<svg width="69" height="69" viewBox="0 0 69 69" fill="none" xmlns="http://www.w3.org/2000/svg">
<g clip-path="url(#clip0)">
<path d="M46.2781 69H22.771C10.2077 69 0 58.7833 0 46.0987V22.9013C0 10.2661 10.2077 0 22.771 0H46.2781C58.8414 0 69.0491 10.2661 69.0491 22.9013V46.1481C69 58.7833 58.8414 69 46.2781 69Z" fill="#00506E"/>
<path d="M46.804 24.4457H36.546V14.2313C36.546 13.5473 35.994 13.0001 35.304 13.0001H32.498C31.808 13.0001 31.256 13.5473 31.256 14.2313V24.4001H20.952C20.262 24.4001 19.71 24.9473 19.71 25.6313V28.5497C19.71 29.2337 20.262 29.7809 20.952 29.7809H31.21V54.9977C31.21 55.6817 31.762 56.2289 32.452 56.2289H35.258C35.948 56.2289 36.5 55.6817 36.5 54.9977V29.8721H46.758C47.448 29.8721 48 29.3249 48 28.6409V25.7225C48.092 24.9929 47.494 24.4457 46.804 24.4457Z" fill="white"/>
</g>
<defs>
<clipPath id="clip0">
<rect width="69" height="69" fill="white"/>
</clipPath>
</defs>
</svg>
