<svg width="69" height="69" viewBox="0 0 69 69" fill="none" xmlns="http://www.w3.org/2000/svg">
<g clip-path="url(#clip0)">
<path d="M46.2781 69H22.771C10.2077 69 0 58.7833 0 46.0987V22.9013C0 10.2661 10.2077 0 22.771 0H46.2781C58.8414 0 69.0491 10.2661 69.0491 22.9013V46.1481C69 58.7833 58.8414 69 46.2781 69Z" fill="#00506E"/>
<g clip-path="url(#clip1)">
<path d="M34.19 26.4712C34.1602 26.5711 34.1575 26.6774 34.1823 26.7787C34.207 26.88 34.2583 26.9725 34.3306 27.0462L36.9294 29.6337L36.3163 33.2907C36.2991 33.3962 36.3111 33.5045 36.3508 33.6034C36.3906 33.7024 36.4565 33.788 36.5412 33.8507C36.626 33.9134 36.7261 33.9507 36.8305 33.9585C36.9348 33.9662 37.0392 33.9441 37.1319 33.8945L40.3438 32.1695L43.5556 33.8945C43.6483 33.9441 43.7527 33.9662 43.857 33.9585C43.9614 33.9507 44.0615 33.9134 44.1463 33.8507C44.231 33.788 44.2969 33.7024 44.3367 33.6034C44.3764 33.5045 44.3884 33.3962 44.3713 33.2907L43.7581 29.6337L46.3569 27.075C46.4327 27.0004 46.4865 26.9055 46.5122 26.8011C46.5379 26.6968 46.5344 26.5872 46.5022 26.4847C46.47 26.3823 46.4103 26.2911 46.3299 26.2217C46.2495 26.1522 46.1517 26.1072 46.0475 26.0917L42.4588 25.557L40.85 22.222C40.8034 22.1263 40.7315 22.0458 40.6426 21.9895C40.5537 21.9333 40.4512 21.9035 40.3466 21.9035C40.242 21.9035 40.1395 21.9333 40.0505 21.9895C39.9616 22.0458 39.8898 22.1263 39.8431 22.222L38.24 25.5455L34.6513 26.0802C34.5461 26.0944 34.4471 26.1385 34.3655 26.2077C34.2839 26.2769 34.223 26.3683 34.19 26.4712Z" fill="white"/>
<path d="M52.3363 31.5082C52.3363 31.3557 52.277 31.2095 52.1715 31.1016C52.066 30.9938 51.9229 30.9332 51.7738 30.9332C51.6246 30.9332 51.4815 30.9938 51.376 31.1016C51.2705 31.2095 51.2113 31.3557 51.2113 31.5082C50.9253 33.9746 49.9658 36.3088 48.4425 38.2436C46.9192 40.1784 44.8937 41.6357 42.5979 42.4485C40.3021 43.2614 37.8288 43.397 35.4611 42.8398C33.0934 42.2826 30.9271 41.0551 29.2101 39.2979C27.4931 37.5407 26.2949 35.3248 25.7526 32.9038C25.2103 30.4829 25.3458 27.9547 26.1437 25.6089C26.9415 23.263 28.3695 21.1942 30.2641 19.6393C32.1586 18.0845 34.4432 17.1063 36.8563 16.817C37.0054 16.817 37.1485 16.7564 37.254 16.6486C37.3595 16.5407 37.4188 16.3945 37.4188 16.242C37.4188 16.0895 37.3595 15.9432 37.254 15.8354C37.1485 15.7276 37.0054 15.667 36.8563 15.667C33.3486 15.2831 29.8096 15.9958 26.7065 17.7109C23.6034 19.4259 21.0821 22.0628 19.4756 25.2732C17.8691 28.4836 17.253 32.1166 17.7085 35.6925C18.1641 39.2684 19.6699 42.6189 22.0271 45.3017C24.3844 47.9844 27.4822 49.8733 30.9115 50.7188C34.3408 51.5643 37.9404 51.3267 41.2348 50.0373C44.5293 48.748 47.3637 46.4675 49.3638 43.4971C51.3639 40.5267 52.4357 37.006 52.4375 33.4C52.436 32.768 52.4022 32.1366 52.3363 31.5082Z" fill="white"/>
</g>
</g>
<defs>
<clipPath id="clip0">
<rect width="69" height="69" fill="white"/>
</clipPath>
<clipPath id="clip1">
<rect width="36" height="46" fill="white" transform="translate(17 15)"/>
</clipPath>
</defs>
</svg>
