<svg width="69" height="69" viewBox="0 0 69 69" fill="none" xmlns="http://www.w3.org/2000/svg">
<g clip-path="url(#clip0)">
<path d="M46.2781 69H22.771C10.2077 69 0 58.7833 0 46.0987V22.9013C0 10.2661 10.2077 0 22.771 0H46.2781C58.8414 0 69.0491 10.2661 69.0491 22.9013V46.1481C69 58.7833 58.8414 69 46.2781 69Z" fill="#00506E"/>
<path fill-rule="evenodd" clip-rule="evenodd" d="M35.8053 11.571C35.3662 10.8105 34.6552 10.8088 34.2151 11.571L28.5366 21.4056C28.3162 21.7874 27.7839 22.097 27.3391 22.097H15.9835C15.1053 22.097 14.7485 22.7119 15.1885 23.4741L20.867 33.3093C21.0875 33.6912 21.0894 34.3069 20.867 34.6921L15.1885 44.526C14.7494 45.2865 15.1034 45.903 15.9835 45.903H27.3391C27.78 45.903 28.3142 46.2092 28.5366 46.5944L34.2151 56.429C34.6542 57.1895 35.3653 57.1911 35.8053 56.429L41.4838 46.5944C41.7043 46.2125 42.2366 45.903 42.6813 45.903H54.0363C54.9144 45.903 55.2712 45.2881 54.8312 44.526L49.1534 34.6921C48.933 34.3103 48.931 33.6946 49.1534 33.3093L54.8312 23.4741C55.2703 22.7135 54.9163 22.097 54.0363 22.097H42.6813C42.2404 22.097 41.7062 21.7908 41.4838 21.4056L35.8053 11.571ZM34.617 17.2233C34.8342 16.8472 35.1872 16.8488 35.4035 17.2233L37.8244 21.4158C38.0416 21.792 37.8637 22.097 37.4312 22.097H32.59C32.1557 22.097 31.9805 21.7904 32.1968 21.4158L34.617 17.2233ZM44.1085 25.9522C43.8913 25.5761 44.0693 25.2711 44.5018 25.2711H49.3429C49.7773 25.2711 49.9524 25.5777 49.7361 25.9522L47.3153 30.1447C47.098 30.5209 46.745 30.5193 46.5288 30.1447L44.1085 25.9522ZM25.3263 34.6857C25.1078 34.3074 25.1101 33.6901 25.3263 33.3158L29.5758 25.9561C29.7942 25.5778 30.33 25.2711 30.7621 25.2711H39.2591C39.6959 25.2711 40.2293 25.5818 40.4454 25.9561L44.6942 33.3158C44.9126 33.6941 44.9103 34.3114 44.6942 34.6857L40.4454 42.044C40.227 42.4222 39.6913 42.7289 39.2591 42.7289H30.7621C30.3254 42.7289 29.7919 42.4182 29.5758 42.044L25.3263 34.6857ZM20.285 25.9522C20.0679 25.5761 20.255 25.2711 20.6782 25.2711H25.5188C25.9531 25.2711 26.1282 25.5777 25.912 25.9522L23.4917 30.1447C23.2745 30.5209 22.9215 30.5193 22.7053 30.1447L20.285 25.9522ZM46.5288 37.8552C46.7459 37.4791 47.099 37.4807 47.3153 37.8552L49.7361 42.0477C49.9533 42.4239 49.7754 42.7289 49.3429 42.7289H44.5018C44.0674 42.7289 43.8923 42.4223 44.1085 42.0477L46.5288 37.8552ZM22.7053 37.8552C22.9224 37.4791 23.2755 37.4807 23.4917 37.8552L25.912 42.0477C26.1291 42.4239 25.942 42.7289 25.5188 42.7289H20.6782C20.2439 42.7289 20.0688 42.4223 20.285 42.0477L22.7053 37.8552ZM32.1968 46.5841C31.9796 46.2079 32.1575 45.903 32.59 45.903H37.4312C37.8656 45.903 38.0407 46.2096 37.8244 46.5841L35.4035 50.7766C35.1863 51.1528 34.8333 51.1512 34.617 50.7766L32.1968 46.5841Z" fill="white"/>
</g>
<defs>
<clipPath id="clip0">
<rect width="69" height="69" fill="white"/>
</clipPath>
</defs>
</svg>
