<svg width="108" height="16" viewBox="0 0 108 16" fill="none" xmlns="http://www.w3.org/2000/svg">
<g clip-path="url(#clip0)">
<path d="M7.01382 6.11811C4.90744 5.86793 4.08544 5.45023 4.08544 4.6327C4.08544 3.6387 5.07944 3.04677 6.74578 3.04677C8.22225 3.04677 9.46642 3.79282 9.88859 4.49644L10.0494 4.76448L12.7902 3.35502L12.645 3.06017C11.6666 1.05877 9.59598 0 6.66313 0C3.71018 0.022337 0.73042 1.4385 0.73042 4.55005C0.73042 8.07706 3.75262 8.91247 6.71227 9.26316C9.44409 9.55577 9.76127 10.4291 9.76127 11.0591C9.76127 12.7611 7.47173 12.8929 6.77035 12.8929C4.94095 12.8929 3.53595 12.1134 3.01103 10.8089L2.87254 10.4671L0 11.9548L0.113919 12.2384C1.14365 14.7715 3.30588 16.0022 6.72567 16.0022C11.4522 16.0022 13.1342 13.4491 13.1342 11.0591C13.1364 7.38015 10.1946 6.51124 7.01382 6.11811Z" fill="#00415A"/>
<path d="M19.7862 4.56569C16.5384 4.56569 14.1819 6.94011 14.1819 10.2103C14.1819 13.534 16.4938 15.8548 19.8063 15.8548C23.1301 15.8548 25.4509 13.534 25.4509 10.2103C25.4509 6.94011 23.0698 4.56569 19.7862 4.56569ZM19.8063 12.8728C18.1244 12.8728 17.3738 11.5371 17.3738 10.2125C17.3738 8.92141 18.1355 7.53204 19.8063 7.53204C21.3297 7.53204 22.2388 8.8946 22.2388 10.2125C22.2388 11.5348 21.4883 12.8728 19.8063 12.8728Z" fill="#00415A"/>
<path d="M34.017 10.3152C34.017 11.7493 33.0409 12.8304 31.7476 12.8304C30.1818 12.8304 29.6234 11.5951 29.6234 10.4381V4.77341H26.4314V10.4604C26.4314 13.6524 28.2608 15.7945 30.9814 15.7945C32.2189 15.7945 33.1816 15.446 34.1756 14.6151L34.2985 15.6493H37.1822V4.77341H34.0126V10.3152H34.017Z" fill="#00415A"/>
<path d="M41.7746 0.515984H38.605V15.6292H41.7746V0.515984Z" fill="#00415A"/>
<path d="M58.3734 11.3584C57.529 12.2027 56.2268 12.7276 54.9737 12.7276C51.5784 12.7276 50.3477 10.3688 50.3298 8.16418C50.3186 6.8329 50.7922 5.58649 51.632 4.73992C52.4607 3.90451 53.5843 3.48011 54.9759 3.48011C56.2402 3.48011 57.3972 3.93132 58.2326 4.74885L58.4649 4.97669L60.7634 2.75639L60.52 2.51515C58.9876 1.00517 57.0711 0.205505 54.9737 0.205505C52.635 0.205505 50.6403 0.967197 49.2107 2.4057C47.7767 3.84867 46.9614 5.94835 46.9748 8.16642C46.9949 11.7604 49.1013 15.9576 54.9759 15.9576C57.2364 15.9576 59.2177 15.1802 60.7076 13.7127L60.9466 13.4782L58.6146 11.1194L58.3734 11.3584Z" fill="#00415A"/>
<path d="M66.6671 4.56569C63.4193 4.56569 61.0627 6.94011 61.0627 10.2103C61.0627 13.534 63.3746 15.8548 66.6872 15.8548C70.011 15.8548 72.3318 13.534 72.3318 10.2103C72.334 6.94011 69.9506 4.56569 66.6671 4.56569ZM66.6894 12.8728C65.0075 12.8728 64.2569 11.5371 64.2569 10.2125C64.2569 8.92141 65.0186 7.53204 66.6894 7.53204C68.2128 7.53204 69.1219 8.8946 69.1219 10.2125C69.1219 11.5348 68.3692 12.8728 66.6894 12.8728Z" fill="#00415A"/>
<path d="M81.7155 5.62446C80.9874 4.93871 79.9085 4.52548 78.7581 4.52548C77.1164 4.51654 75.66 5.0571 74.6571 6.05109C73.6452 7.05626 73.1113 8.48806 73.1113 10.1901C73.1113 11.9637 73.6497 13.4379 74.6705 14.4498C75.651 15.4237 77.0248 15.9375 78.6487 15.9375C78.6665 15.9375 78.6844 15.9375 78.7023 15.9375C79.7276 15.9196 80.9539 15.5019 81.7424 14.7223L81.8183 15.627H84.8383V4.77118H81.7692L81.7155 5.62446ZM81.6217 10.2013C81.6217 10.9317 81.3872 11.6063 80.9583 12.1067C80.4825 12.6606 79.799 12.9555 78.9815 12.9555C77.3777 12.9555 76.3011 11.8453 76.3011 10.1901C76.3011 8.54837 77.3777 7.44716 78.9815 7.44716C80.7975 7.44716 81.6217 8.87449 81.6217 10.2013Z" fill="#00415A"/>
<path d="M93.9315 12.1022C93.4334 12.6003 92.7633 12.8505 91.9368 12.8505C90.7574 12.8505 89.3792 12.158 89.3792 10.2102C89.3792 8.63102 90.4469 7.52981 91.977 7.52981C92.6248 7.52981 93.2882 7.79339 93.7997 8.24906L94.041 8.46573L96.0826 6.31691L95.848 6.08684C94.7021 4.96329 93.5317 4.48304 91.9346 4.48304C88.4433 4.48304 86.1873 6.73014 86.1873 10.2102C86.1873 13.6904 88.4433 15.9375 91.9346 15.9375C93.5875 15.9375 94.9099 15.3947 96.096 14.2287L96.3394 13.9897L94.1638 11.8677L93.9315 12.1022Z" fill="#00415A"/>
<path d="M102.951 4.62823C101.81 4.62823 100.872 4.96105 100.103 5.64009V0.49588H96.9136V15.6292H100.103V10.0874C100.103 8.6891 101.044 7.63255 102.29 7.63255C103.586 7.63255 104.269 8.43222 104.269 9.9422V15.6292H107.459V9.9221C107.459 6.509 105.857 4.62823 102.951 4.62823Z" fill="#00415A"/>
</g>
<defs>
<clipPath id="clip0">
<rect width="107.459" height="16" fill="white"/>
</clipPath>
</defs>
</svg>
