<svg width="69" height="69" viewBox="0 0 69 69" fill="none" xmlns="http://www.w3.org/2000/svg">
<g clip-path="url(#clip0)">
<path d="M46.2781 69H22.771C10.2077 69 0 58.7833 0 46.0987V22.9013C0 10.2661 10.2077 0 22.771 0H46.2781C58.8414 0 69.0491 10.2661 69.0491 22.9013V46.1481C69 58.7833 58.8414 69 46.2781 69Z" fill="#00506E"/>
<path d="M34.5 14.1233C31.8002 17.8093 25.9924 14.4516 24.6104 17.7888C22.9507 21.7963 30.3194 22.7262 27.8201 25.3057C24.5946 26.8855 25.9874 19.5903 21.6631 19.9304C18.0622 20.2135 19.4606 26.7746 15.1208 28.2031C17.7921 31.9098 12.8042 36.3957 15.5509 38.7413C18.8495 41.5581 22.011 34.8375 23.6918 38.0116C24.1976 41.5674 17.6895 37.9884 16.6766 42.2061C15.8332 45.7183 22.5053 46.4157 22.5229 50.9847C26.8736 49.5895 29.5988 55.7196 32.6785 53.832C36.3767 51.5654 30.9619 46.4819 34.5 45.8641C38.0381 46.4819 32.6232 51.5654 36.3215 53.832C39.4012 55.7196 42.1264 49.5895 46.4771 50.9847C46.4946 46.4157 53.1668 45.7183 52.3233 42.2061C51.3105 37.9884 44.8024 41.5674 45.3082 38.0116C46.989 34.8375 50.1505 41.5581 53.449 38.7413C56.1958 36.3957 51.2079 31.9098 53.8792 28.2031C49.5393 26.7746 50.9378 20.2135 47.3368 19.9304C43.0126 19.5903 44.4054 26.8855 41.1799 25.3057C38.6806 22.7262 46.0493 21.7963 44.3896 17.7888C43.0076 14.4516 37.1997 17.8093 34.5 14.1233ZM34.0639 15.9532H34.924V25.0652H34.0639V15.9532ZM30.4666 25.3763C32.0889 25.3763 33.5388 26.2021 34.5 27.5001C35.4611 26.2021 36.9111 25.3763 38.5334 25.3763C41.4273 25.3763 43.7737 28.0053 43.7737 31.2493C43.7737 37.1522 39.464 40.5956 34.5 44.7614C29.5827 40.59 25.2263 37.1736 25.2263 31.2493C25.2263 28.0053 27.5726 25.3763 30.4666 25.3763ZM16.9961 28.3537L24.09 30.6589L23.8243 31.4767L16.7305 29.1718L16.9961 28.3537ZM52.0039 28.3537L52.2695 29.1718L45.1756 31.4767L44.91 30.6589L52.0039 28.3537ZM33.1366 28.4657V31.4664H30.1369V34.1943H33.1366V41.9962H35.8633V34.1943H38.8631V31.4664H35.8633V28.4657H33.1366ZM28.6015 41.8761L29.2973 42.3819L23.9416 49.7532L23.2458 49.2477L28.6015 41.8761ZM40.3985 41.8761L45.7542 49.2477L45.0584 49.7532L39.7027 42.3819L40.3985 41.8761Z" fill="white"/>
</g>
<defs>
<clipPath id="clip0">
<rect width="69" height="69" fill="white"/>
</clipPath>
</defs>
</svg>
