<svg width="17" height="18" viewBox="0 0 17 18" fill="none" xmlns="http://www.w3.org/2000/svg">
<g clip-path="url(#clip0)">
<path d="M16.1159 15.1823L14.8997 13.0358C14.338 12.045 14.0412 10.9103 14.0412 9.75526V7.875C14.0412 5.50125 12.5452 3.49351 10.4995 2.84625V1.50001C10.4995 0.67275 9.86412 0 9.08282 0C8.30152 0 7.66614 0.67275 7.66614 1.50001V2.84625C5.6205 3.49351 4.1245 5.50125 4.1245 7.875V9.75526C4.1245 10.9103 3.82769 12.0442 3.26669 13.035L2.0505 15.1815C1.98462 15.2978 1.98319 15.4418 2.04625 15.5595C2.1093 15.6773 2.22617 15.75 2.35367 15.75H15.812C15.9395 15.75 16.0571 15.6773 16.1201 15.5603C16.1832 15.4433 16.1811 15.2978 16.1159 15.1823Z" fill="white"/>
<path d="M6.8523 16.5C7.2518 17.3835 8.09755 18 9.08282 18C10.0681 18 10.9139 17.3835 11.3134 16.5H6.8523V16.5Z" fill="white"/>
</g>
<defs>
<clipPath id="clip0">
<rect width="17" height="18" fill="white"/>
</clipPath>
</defs>
</svg>
