<svg width="69" height="69" viewBox="0 0 69 69" fill="none" xmlns="http://www.w3.org/2000/svg">
<g clip-path="url(#clip0)">
<path d="M46.2781 69H22.771C10.2077 69 0 58.7833 0 46.0987V22.9013C0 10.2661 10.2077 0 22.771 0H46.2781C58.8414 0 69.0491 10.2661 69.0491 22.9013V46.1481C69 58.7833 58.8414 69 46.2781 69Z" fill="#00506E"/>
<path d="M31.4177 10.6V15.8H26.7865V21H31.4177V25.8776H19.5554V31.0776H31.4177V38.5968L26.4553 35.7316V41.736L31.4177 44.6012V57.4H36.6177V47.6032L41.58 50.4684V44.464L36.6177 41.5988V31.0776H48.4799V25.8776H36.6177V21H41.2493V15.8H36.6177V10.6H31.4177Z" fill="white"/>
</g>
<defs>
<clipPath id="clip0">
<rect width="69" height="69" fill="white"/>
</clipPath>
</defs>
</svg>
